mtllib decomp.mtl
o app/meshes/bunny000
usemtl Material000
v -0.137785632 1.585741056 -0.015637817
v 0.019663835 1.518262713 -0.150594503
v 0.019663835 1.675712180 -0.173087284
v -0.002828946 1.675712180 -0.285551189
v -0.250249537 1.518262713 -0.128101722
v 0.019663835 1.518262713 -0.285551189
v -0.115292851 1.653219399 -0.083116160
v -0.070307289 1.630726618 -0.060623379
v -0.137785632 1.518262713 -0.015637817
v 0.019663835 1.675712180 -0.285551189
v -0.263152382 1.509251855 -0.075036467
v -0.025321727 1.698204960 -0.195580065
v -0.025321727 1.675712180 -0.128101722
v -0.272742318 1.540755494 -0.015637817
v -0.137785632 1.630726618 -0.173087284
v -0.270212659 1.513521511 -0.017439134
v -0.205263975 1.585741056 -0.015637817
v -0.272742318 1.540755494 -0.083116160
f 6 3 2
f 6 5 4
f 8 2 3
f 8 7 1
f 9 8 1
f 9 2 8
f 10 6 4
f 10 3 6
f 11 6 2
f 11 5 6
f 11 2 9
f 12 10 4
f 12 3 10
f 13 8 3
f 13 7 8
f 13 12 7
f 13 3 12
f 14 9 1
f 15 12 4
f 15 4 5
f 15 7 12
f 16 11 9
f 16 9 14
f 17 14 1
f 17 1 7
f 17 7 14
f 18 5 11
f 18 16 14
f 18 11 16
f 18 15 5
f 18 14 7
f 18 7 15
o app/meshes/bunny001
usemtl Material001
v -0.520162908 1.495769932 -0.330536751
v -0.475177346 1.473277151 -0.510478998
v -0.475177346 1.585741056 -0.600450122
v -0.542655689 1.585741056 -0.667928465
v -0.700105155 1.473277151 -0.443000655
v -0.475177346 1.473277151 -0.667928465
v -0.655119593 1.608233837 -0.510478998
v -0.531005535 1.464918172 -0.332773538
v -0.475177346 1.585741056 -0.667928465
v -0.565148470 1.473277151 -0.645435684
v -0.565148470 1.630726618 -0.555464560
v -0.655119593 1.518262713 -0.330536751
v -0.542655689 1.495769932 -0.667928465
v -0.677612374 1.585741056 -0.555464560
v -0.679511807 1.468174252 -0.378377751
v -0.497670127 1.608233837 -0.577957341
v -0.542655689 1.630726618 -0.622942903
v -0.587641251 1.540755494 -0.353029531
v -0.668916481 1.469263083 -0.333007505
v -0.677612374 1.540755494 -0.555464560
v -0.610134032 1.608233837 -0.622942903
v -0.700105155 1.518262713 -0.398015093
v -0.587641251 1.630726618 -0.622942903
v -0.677612374 1.585741056 -0.465493436
f 19 20 21
f 24 21 20
f 26 20 19
f 26 24 20
f 27 24 22
f 27 21 24
f 28 24 26
f 31 22 24
f 31 24 28
f 33 28 26
f 33 23 28
f 34 29 19
f 34 19 21
f 34 21 27
f 35 27 22
f 35 34 27
f 35 29 34
f 36 29 25
f 36 30 19
f 36 19 29
f 37 26 19
f 37 19 30
f 37 33 26
f 37 23 33
f 38 31 28
f 38 28 23
f 38 23 32
f 39 22 31
f 39 38 32
f 39 31 38
f 40 32 23
f 40 37 30
f 40 23 37
f 41 25 29
f 41 29 35
f 41 35 22
f 41 22 39
f 41 39 32
f 41 32 25
f 42 36 25
f 42 30 36
f 42 40 30
f 42 25 32
f 42 32 40
o app/meshes/bunny002
usemtl Material002
v -0.167830681 0.236779508 -0.120641831
v -0.137785632 0.033739171 -0.128101722
v -0.128988890 0.236417983 -0.236006662
v -0.205263975 0.101217514 -0.330536751
v -0.339292362 0.003989685 -0.125232296
v -0.137785632 -0.011246390 -0.330536751
v -0.317727879 0.146203076 -0.150594503
v -0.137785632 0.236174200 -0.128101722
v -0.333512989 0.096222063 -0.108298851
v -0.137785632 -0.011246390 -0.195580065
v -0.137785632 0.146203076 -0.308043970
v -0.317727879 -0.011246390 -0.263058408
v -0.160278413 0.236174200 -0.240565627
v -0.227756756 -0.011246390 -0.128101722
v -0.295235098 0.168695857 -0.128101722
v -0.137785632 0.078724733 -0.330536751
v -0.250249537 -0.011246390 -0.330536751
v -0.272742318 0.078724733 -0.308043970
v -0.340220660 0.056231952 -0.218072846
v -0.182771194 0.236174200 -0.150594503
v -0.272742318 0.146203076 -0.240565627
v -0.317727879 0.056231952 -0.263058408
f 50 43 44
f 50 44 45
f 50 45 43
f 51 44 43
f 52 48 45
f 52 45 44
f 54 48 52
f 55 43 45
f 55 53 46
f 55 45 53
f 56 51 47
f 56 44 51
f 56 52 44
f 56 54 52
f 56 47 54
f 57 51 43
f 57 49 51
f 57 55 49
f 58 48 46
f 58 46 53
f 58 53 45
f 58 45 48
f 59 46 48
f 59 48 54
f 60 46 59
f 60 55 46
f 61 51 49
f 61 54 47
f 61 47 51
f 62 57 43
f 62 43 55
f 62 55 57
f 63 49 55
f 63 55 60
f 63 61 49
f 64 54 61
f 64 60 59
f 64 59 54
f 64 63 60
f 64 61 63
o app/meshes/bunny003
usemtl Material003
v 0.020165374 0.060525328 -0.128567479
v 0.019663835 0.033739171 -0.128101722
v 0.019663835 0.191188638 -0.353029531
v -0.047814508 0.236174200 -0.353029531
v -0.137789103 0.057964123 -0.128061846
v 0.020554296 0.237953912 -0.349224638
v 0.019663835 -0.011246390 -0.285551189
v -0.144833688 0.235828919 -0.198046394
v 0.019663835 -0.011246390 -0.173087284
v -0.142717196 0.018040339 -0.312288342
v -0.120311306 0.239719438 -0.257260000
v -0.115292851 0.033739171 -0.128101722
v -0.137785632 -0.011246390 -0.195580065
v -0.115292851 0.236174200 -0.308043970
v -0.141566950 0.006824638 -0.299402634
f 69 66 65
f 70 67 68
f 71 70 65
f 71 67 70
f 72 69 65
f 72 65 70
f 73 71 65
f 73 65 66
f 74 68 67
f 74 67 71
f 74 69 72
f 75 72 70
f 75 70 68
f 76 73 66
f 76 66 69
f 77 71 73
f 77 73 76
f 77 76 69
f 77 69 74
f 78 74 72
f 78 72 75
f 78 75 68
f 78 68 74
f 79 77 74
f 79 74 71
f 79 71 77
o app/meshes/bunny004
usemtl Material004
v -0.407699003 0.078724733 0.546681706
v -0.344898949 0.028385029 0.510591099
v -0.327478944 0.236799845 0.424588000
v -0.497670127 0.123710295 0.276768335
v -0.565148470 0.011246390 0.411725020
v -0.340235713 0.012587883 0.366712776
v -0.340220660 0.123710295 0.524188925
v -0.497670127 0.011246390 0.524188925
v -0.520162908 0.146203076 0.434217801
v -0.340220660 0.236174200 0.366739458
v -0.542655689 0.011246390 0.276768335
v -0.385206222 0.033739171 0.546681706
v -0.475177346 0.146203076 0.501696144
v -0.542655689 0.101217514 0.456710582
v -0.452355729 0.008718205 0.276340148
v -0.370116091 0.231853864 0.362784910
v -0.542655689 0.101217514 0.299261116
v -0.497670127 0.078724733 0.524188925
v -0.542655689 0.011246390 0.479203363
v -0.446994915 0.115975715 0.281492909
v -0.491868611 0.009370608 0.276414236
v -0.565148470 0.056231952 0.344246677
f 85 82 81
f 86 81 82
f 87 85 81
f 89 82 85
f 91 86 80
f 91 81 86
f 91 87 81
f 91 80 87
f 92 86 82
f 92 80 86
f 92 82 88
f 93 92 88
f 94 89 85
f 94 85 87
f 95 88 82
f 95 82 89
f 95 89 83
f 96 83 90
f 96 95 83
f 96 88 95
f 96 93 88
f 97 87 80
f 97 80 92
f 97 92 93
f 98 93 84
f 98 97 93
f 98 87 97
f 98 94 87
f 98 84 94
f 99 94 83
f 99 83 89
f 99 89 94
f 100 90 83
f 100 83 94
f 100 94 84
f 100 84 90
f 101 96 90
f 101 90 84
f 101 84 93
f 101 93 96
o app/meshes/bunny005
usemtl Material005
v 0.155602048 0.237020043 0.608635390
v 0.152462374 0.030239037 0.535049527
v 0.153648381 0.066394487 0.408320809
v -0.137959136 0.235578809 0.417414633
v -0.137785632 0.011246390 0.614160049
v -0.092800070 0.236174200 0.411725020
v 0.158336877 0.016860457 0.446796893
v 0.132127739 0.011246390 0.569174487
v -0.137785632 0.191188638 0.546681706
v 0.132127739 0.236174200 0.569174487
v -0.110189973 0.058938238 0.404860590
v 0.027092849 0.242404804 0.573704371
v -0.047814508 0.011246390 0.614160049
v -0.139510112 0.013181057 0.458545938
v -0.137785632 0.236174200 0.456710582
v -0.137785632 0.101217514 0.614160049
f 108 102 103
f 108 104 102
f 109 103 102
f 109 108 103
f 111 102 104
f 111 104 107
f 112 107 104
f 112 105 107
f 112 104 108
f 113 107 105
f 113 111 107
f 113 102 111
f 114 109 102
f 114 106 109
f 115 109 106
f 115 108 109
f 115 112 108
f 115 105 112
f 115 110 105
f 116 113 105
f 116 105 110
f 116 110 113
f 117 113 110
f 117 102 113
f 117 114 102
f 117 106 114
f 117 115 106
f 117 110 115
o app/meshes/bunny006
usemtl Material006
v -0.520162908 1.360813246 -0.015637817
v -0.475177346 1.248349342 -0.105608941
v -0.475177346 1.473277151 -0.465493436
v -0.520162908 1.473277151 -0.667928465
v -0.655119593 1.248349342 -0.285551189
v -0.475177346 1.405798808 -0.645435684
v -0.655119593 1.518262713 -0.330536751
v -0.475177346 1.405798808 -0.240565627
v -0.663451495 1.288910869 -0.013336124
v -0.475177346 1.473277151 -0.667928465
v -0.610134032 1.270842123 -0.487986217
v -0.565148470 1.518262713 -0.330536751
v -0.602697207 1.197301317 -0.096566913
v -0.506663132 1.285651788 -0.008031812
v -0.700105155 1.450784370 -0.398015093
v -0.632626812 1.383306027 -0.015637817
v -0.565148470 1.360813246 -0.622942903
v -0.520162908 1.293334904 -0.532971779
v -0.520162908 1.495769932 -0.330536751
v -0.655119593 1.225856561 -0.105608941
v -0.529531481 1.197707448 -0.099295443
v -0.587641251 1.473277151 -0.600450122
v -0.677612374 1.338320466 -0.015637817
v -0.632626812 1.518262713 -0.285551189
v -0.497670127 1.360813246 -0.622942903
v -0.542655689 1.450784370 -0.150594503
v -0.679759293 1.475738785 -0.396576807
v -0.677612374 1.473277151 -0.240565627
v -0.700105155 1.473277151 -0.353029531
f 123 120 119
f 125 118 119
f 125 119 120
f 127 123 121
f 127 120 123
f 127 121 124
f 129 127 124
f 130 122 128
f 131 119 118
f 131 126 130
f 132 128 122
f 133 131 118
f 133 126 131
f 134 121 123
f 134 128 132
f 135 123 119
f 135 128 134
f 136 125 120
f 136 120 127
f 136 127 129
f 137 130 126
f 137 122 130
f 137 132 122
f 138 131 130
f 138 119 131
f 138 135 119
f 138 130 128
f 138 128 135
f 139 124 121
f 139 134 132
f 139 121 134
f 140 126 133
f 140 137 126
f 140 132 137
f 141 129 124
f 142 135 134
f 142 134 123
f 142 123 135
f 143 136 129
f 143 118 125
f 143 125 136
f 143 129 141
f 143 141 133
f 143 133 118
f 144 139 132
f 144 124 139
f 145 140 133
f 145 141 124
f 145 133 141
f 146 144 132
f 146 124 144
f 146 145 124
f 146 132 140
f 146 140 145
o app/meshes/bunny007
usemtl Material007
v -0.446994915 0.115975715 0.281492909
v -0.340220660 -0.011246390 0.119318868
v -0.337969170 0.238063363 -0.095851090
v -0.362713441 0.011246390 -0.173087284
v -0.610134032 -0.011246390 -0.015637817
v -0.340220660 -0.011246390 -0.173087284
v -0.395716168 0.231468301 0.147918024
v -0.491868611 0.009370608 0.276414236
v -0.587641251 0.056231952 -0.060623379
v -0.542655689 -0.011246390 -0.083116160
v -0.340220660 0.033739171 0.141811649
v -0.587641251 -0.011246390 0.141811649
v -0.385206222 0.236174200 -0.105608941
v -0.452355729 0.008718205 0.276340148
v -0.520162908 0.078724733 0.276768335
v -0.610134032 0.101217514 0.119318868
v -0.452684565 0.236174200 0.119318868
v -0.516135561 0.018720831 0.279919275
v -0.610134032 0.101217514 0.051840525
v -0.610134032 0.011246390 0.141811649
v -0.452684565 0.236174200 -0.015637817
f 152 149 148
f 152 150 149
f 152 148 151
f 156 152 151
f 156 150 152
f 156 155 150
f 156 151 155
f 157 153 147
f 157 148 149
f 157 149 153
f 158 151 148
f 159 149 150
f 159 150 155
f 160 148 157
f 160 158 148
f 160 154 158
f 160 157 147
f 163 153 149
f 163 162 161
f 163 161 147
f 163 147 153
f 164 160 147
f 164 154 160
f 164 147 161
f 164 158 154
f 165 155 151
f 165 151 162
f 165 162 163
f 166 162 151
f 166 151 158
f 166 158 164
f 166 164 161
f 166 161 162
f 167 163 149
f 167 149 159
f 167 165 163
f 167 159 155
f 167 155 165
o app/meshes/bunny008
usemtl Material008
v -0.385206222 1.023421532 0.434217801
v -0.272825891 0.862183532 0.406759991
v -0.385206222 1.315827685 0.276768335
v -0.406299440 1.229930232 0.001313210
v -0.407644931 0.864761145 0.409837028
v -0.299651103 1.235994908 0.031852356
v -0.272742318 0.933450409 0.389232239
v -0.418676598 0.938394900 0.422940427
v -0.406307152 1.114037725 -0.017087769
v -0.385206222 1.338320466 0.186797211
v -0.385206222 1.270842123 0.321753897
v -0.272742318 1.023421532 0.276768335
v -0.417239445 1.308933060 0.273604417
v -0.272742318 0.865972066 0.366739458
v -0.364566550 1.235571214 -0.003488111
v -0.414236048 1.328430270 0.160722270
v -0.416648838 1.269515243 0.317633993
v -0.362713441 1.113392656 -0.015637817
v -0.272742318 0.978435971 0.231782773
v -0.407699003 1.090899875 0.411725020
f 174 168 169
f 175 172 169
f 175 169 168
f 176 172 175
f 177 170 173
f 178 174 170
f 178 168 174
f 179 173 170
f 179 170 174
f 180 170 177
f 181 169 172
f 181 172 176
f 181 179 174
f 181 174 169
f 182 176 171
f 182 177 173
f 183 176 175
f 183 175 180
f 183 171 176
f 183 180 177
f 183 182 171
f 183 177 182
f 184 178 170
f 184 170 180
f 184 180 175
f 185 181 176
f 185 182 173
f 185 176 182
f 186 173 179
f 186 179 181
f 186 185 173
f 186 181 185
f 187 168 178
f 187 178 184
f 187 184 175
f 187 175 168
o app/meshes/bunny009
usemtl Material009
v -0.362713441 1.338320466 0.164304430
v 0.087142177 1.428291589 -0.150594503
v -0.160278413 1.563248275 0.006854963
v 0.019663835 1.653219399 -0.308043970
v -0.406299440 1.229930232 0.001313210
v 0.042156615 1.675712180 -0.218072846
v -0.092800070 1.405798808 0.029347744
v 0.087142177 1.450784370 -0.263058408
v -0.407699003 1.428291589 -0.015637817
v 0.019663835 1.428291589 -0.060623379
v -0.340220660 1.225856561 0.164304430
v 0.019663835 1.540755494 -0.308043970
v -0.272742318 1.225856561 -0.015637817
v 0.109634958 1.540755494 -0.285551189
v -0.407699003 1.360813246 0.164304430
v -0.317727879 1.518262713 0.006854963
v 0.087142177 1.473277151 -0.150594503
v 0.019663835 1.360813246 -0.060623379
v -0.317727879 1.338320466 -0.105608941
v -0.372999054 1.224786303 0.170045721
v 0.109634958 1.495769932 -0.285551189
v 0.087142177 1.630726618 -0.308043970
v -0.407699003 1.405798808 -0.038130598
v 0.019663835 1.675712180 -0.285551189
v -0.227756756 1.563248275 0.006854963
v -0.407699003 1.405798808 0.119318868
v 0.042156615 1.383306027 -0.150594503
v 0.087142177 1.518262713 -0.308043970
v 0.087142177 1.608233837 -0.240565627
v -0.340220660 1.495769932 -0.060623379
v 0.042156615 1.675712180 -0.285551189
f 194 190 188
f 197 193 190
f 197 190 194
f 198 194 188
f 202 188 190
f 204 197 189
f 204 193 197
f 204 189 201
f 205 197 194
f 205 194 198
f 205 189 197
f 205 198 200
f 206 191 199
f 206 200 192
f 206 195 200
f 207 200 198
f 207 192 200
f 207 202 192
f 207 198 188
f 207 188 202
f 208 201 189
f 208 189 195
f 209 199 191
f 209 201 208
f 210 202 196
f 210 192 202
f 210 206 192
f 210 191 206
f 212 190 193
f 212 211 203
f 212 193 211
f 212 202 190
f 213 203 196
f 213 196 202
f 213 212 203
f 213 202 212
f 214 205 200
f 214 200 195
f 214 195 189
f 214 189 205
f 215 206 199
f 215 195 206
f 215 208 195
f 215 209 208
f 215 199 209
f 216 204 201
f 216 201 209
f 216 209 193
f 216 193 204
f 217 196 203
f 217 203 211
f 217 210 196
f 217 211 191
f 217 191 210
f 218 209 191
f 218 191 211
f 218 211 193
f 218 193 209
o app/meshes/bunny010
usemtl Material010
v 0.694447263 0.258666981 0.389232239
v 0.851896729 0.236174200 0.231782773
v 0.806911167 0.438609228 0.074333306
v 0.553087005 0.240359656 -0.100651418
v 0.450029390 0.017823165 0.140210318
v 0.739432824 0.168695857 -0.038130598
v 0.669215005 0.438630192 0.275350554
v 0.694447263 0.146203076 0.366739458
v 0.851896729 0.326145324 0.051840525
v 0.447026672 0.033739171 -0.038130598
v 0.634054994 0.438268331 -0.064334519
v 0.671954482 0.326145324 0.366739458
v 0.829403948 0.371130885 0.299261116
v 0.647045539 0.197751044 0.369152147
v 0.716940043 0.078724733 0.209289992
v 0.829403948 0.191188638 0.074333306
v 0.671954482 0.146203076 -0.060623379
v 0.454575728 0.090149020 -0.051038198
v 0.829403948 0.371130885 0.029347744
v 0.784418386 0.281159762 -0.038130598
v 0.806911167 0.438609228 0.254275554
v 0.851896729 0.416116447 0.209289992
v 0.784418386 0.348638104 0.344246677
v 0.784418386 0.146203076 0.276768335
v 0.581983358 0.011246390 0.141811649
v 0.829403948 0.236174200 0.029347744
v 0.851896729 0.416116447 0.141811649
v 0.739432824 0.371130885 0.344246677
v 0.784418386 0.236174200 0.344246677
v 0.784418386 0.393623666 0.321753897
v 0.806911167 0.146203076 0.141811649
v 0.447026672 0.011246390 0.006854963
v 0.649461701 0.078724733 -0.015637817
v 0.829403948 0.258666981 0.299261116
v 0.739432824 0.123710295 0.006854963
v 0.559490577 0.011246390 0.051840525
v 0.716940043 0.078724733 0.074333306
f 229 225 221
f 230 225 223
f 232 226 219
f 232 223 226
f 232 230 223
f 232 219 230
f 234 227 220
f 235 228 222
f 236 229 222
f 236 222 228
f 236 228 223
f 236 223 225
f 236 225 229
f 237 229 221
f 238 222 229
f 238 235 222
f 238 224 235
f 238 229 237
f 238 237 227
f 239 221 225
f 240 231 220
f 240 220 227
f 240 239 231
f 240 221 239
f 242 226 233
f 243 233 226
f 243 226 223
f 244 224 238
f 244 238 227
f 244 227 234
f 245 237 221
f 245 221 240
f 245 240 227
f 245 227 237
f 246 230 219
f 246 219 241
f 246 225 230
f 247 241 219
f 247 219 226
f 247 226 242
f 247 231 241
f 248 241 231
f 248 231 239
f 248 246 241
f 248 239 225
f 248 225 246
f 249 234 220
f 249 220 242
f 249 242 233
f 250 243 223
f 250 223 228
f 251 235 224
f 251 228 235
f 252 247 242
f 252 242 220
f 252 220 231
f 252 231 247
f 253 251 224
f 253 234 249
f 253 244 234
f 253 224 244
f 254 243 250
f 254 250 228
f 254 228 251
f 255 253 249
f 255 249 233
f 255 233 243
f 255 243 254
f 255 254 251
f 255 251 253
o app/meshes/bunny011
usemtl Material011
v -0.632626812 1.068407094 0.614160049
v -0.407699003 0.888464847 0.434217801
v -0.400454548 1.389148850 0.083648131
v -0.648191171 1.296501096 -0.104581033
v -0.835061841 0.865972066 0.119318868
v -0.407699003 1.090899875 -0.060623379
v -0.812569060 1.293334904 0.299261116
v -0.430191784 1.315827685 0.389232239
v -0.790076279 0.843479285 0.501696144
v -0.359704488 1.295183607 -0.032106933
v -0.678182995 0.866104830 -0.016208584
v -0.655119593 1.360813246 -0.015637817
v -0.812569060 1.270842123 0.119318868
v -0.520162908 1.000928752 0.591667268
v -0.655119593 1.293334904 0.456710582
v -0.835061841 1.023421532 0.501696144
v -0.387612860 1.089655361 -0.012741493
v -0.407699003 1.293334904 0.366739458
v -0.475177346 1.293334904 -0.105608941
v -0.767583498 0.910957628 -0.015637817
v -0.475177346 0.776000942 0.434217801
v -0.632626812 1.360813246 0.276768335
v -0.790076279 1.315827685 0.141811649
v -0.610134032 1.203363780 0.546681706
v -0.655119593 0.865972066 0.591667268
v -0.835061841 0.910957628 0.501696144
v -0.857554622 1.068407094 0.209289992
v -0.722597936 1.113392656 0.591667268
v -0.408101097 0.874976795 0.403271845
v -0.407699003 1.045914313 0.456710582
v -0.394516706 1.400637091 -0.001922004
v -0.529531481 1.197707448 -0.099295443
v -0.767583498 0.865972066 0.006854963
v -0.835061841 1.023421532 0.074333306
v -0.692576772 0.773327930 0.360166231
v -0.520162908 0.910957628 0.591667268
v -0.835061841 1.270842123 0.186797211
v -0.474705011 0.770477971 0.465855028
v -0.857554622 0.910957628 0.276768335
v -0.767583498 0.865972066 0.546681706
v -0.767583498 1.270842123 0.411725020
v -0.790076279 1.068407094 0.546681706
v -0.700105155 1.000928752 0.614160049
v -0.565148470 0.910957628 0.614160049
f 268 267 259
f 272 261 265
f 273 265 258
f 273 258 263
f 274 265 261
f 276 266 261
f 276 261 272
f 277 270 263
f 277 263 258
f 278 267 268
f 278 277 267
f 278 262 277
f 279 269 263
f 279 256 269
f 279 263 270
f 283 279 270
f 283 256 279
f 284 272 265
f 284 265 257
f 284 276 272
f 285 257 265
f 285 265 273
f 285 273 263
f 285 263 269
f 286 258 265
f 286 265 274
f 286 277 258
f 286 267 277
f 286 274 259
f 286 259 267
f 287 259 274
f 287 275 259
f 287 266 275
f 287 274 261
f 287 261 266
f 288 275 266
f 288 260 275
f 289 268 259
f 289 259 275
f 289 275 260
f 289 260 282
f 290 264 260
f 290 260 288
f 290 288 266
f 290 266 276
f 291 285 269
f 291 257 285
f 292 278 268
f 292 262 278
f 292 289 282
f 292 268 289
f 292 282 271
f 292 271 262
f 293 280 264
f 293 257 291
f 293 284 257
f 293 276 284
f 293 290 276
f 293 264 290
f 294 260 264
f 294 264 281
f 294 282 260
f 294 281 271
f 294 271 282
f 295 281 264
f 295 264 280
f 296 283 270
f 296 262 271
f 296 277 262
f 296 270 277
f 297 271 281
f 297 296 271
f 297 283 296
f 298 256 283
f 298 295 280
f 298 283 297
f 298 297 281
f 298 281 295
f 299 291 269
f 299 269 256
f 299 256 298
f 299 298 280
f 299 293 291
f 299 280 293
o app/meshes/bunny012
usemtl Material012
v -0.137785632 0.033739171 0.614160049
v 0.020193879 0.064235586 0.412876892
v -0.340391824 0.303650717 0.411842204
v -0.340721474 0.348050311 -0.129509369
v -0.339292362 0.003989685 -0.125232296
v -0.191832932 0.321625983 -0.133394679
v -0.129244711 0.153765584 0.538192188
v -0.137785632 -0.011246390 0.141811649
v -0.452438672 0.010877754 0.366122110
v -0.253768918 0.007268599 -0.130909899
v -0.128073026 0.070372216 0.597723295
v -0.137959136 0.235578809 0.417414633
v -0.132553777 0.028474714 0.581695341
v -0.340220660 0.101217514 0.524188925
v -0.452684565 0.168695857 0.141811649
v -0.452663480 0.003107826 0.141648729
v 0.020165374 0.060525328 -0.128567479
v -0.344898949 0.028385029 0.510591099
v -0.448403538 0.154395428 0.368804506
v 0.019201819 0.055645522 0.275862822
f 305 303 302
f 309 304 303
f 309 303 305
f 309 307 304
f 310 300 301
f 310 301 306
f 310 306 302
f 311 305 302
f 311 302 306
f 311 306 301
f 311 301 305
f 312 307 301
f 312 301 300
f 312 308 307
f 312 300 308
f 313 310 302
f 313 300 310
f 314 302 303
f 315 304 307
f 315 307 308
f 315 308 314
f 315 314 303
f 315 303 304
f 316 309 305
f 316 305 301
f 316 307 309
f 317 313 308
f 317 308 300
f 317 300 313
f 318 313 302
f 318 308 313
f 318 314 308
f 318 302 314
f 319 316 301
f 319 301 307
f 319 307 316
o app/meshes/bunny013
usemtl Material013
v 0.626968920 0.843479285 0.141811649
v 0.716904086 0.437991642 0.141911455
v 0.581983358 0.618551476 -0.195580065
v 0.019663835 0.618551476 -0.420507874
v 0.019663835 0.033739171 -0.128101722
v 0.447026672 0.843479285 -0.173087284
v 0.694447263 0.686029818 0.051840525
v 0.671954482 0.438609228 0.141811649
v 0.019833026 0.845737067 -0.199015165
v 0.334562768 0.011246390 -0.240565627
v 0.289577206 0.641044257 -0.353029531
v 0.694447263 0.686029818 0.141811649
v 0.716940043 0.438609228 0.051840525
v 0.604476139 0.798493723 -0.083116160
v 0.443715341 0.061087056 -0.032468787
v 0.588903239 0.848424745 0.142116865
v 0.014890497 0.018940194 -0.270097917
v 0.042156615 0.843479285 -0.240565627
v 0.559490577 0.776000942 -0.150594503
v 0.109634958 0.686029818 -0.375522312
v 0.402041110 0.213681419 -0.308043970
v 0.649461701 0.798493723 0.029347744
v 0.671954482 0.641044257 -0.060623379
v 0.581983358 0.843479285 -0.060623379
v 0.334562768 -0.011246390 -0.128101722
v 0.557444290 0.106483388 -0.029822260
v 0.017060933 0.439974665 -0.405654360
v 0.312069987 0.843479285 -0.218072846
v 0.109634958 0.573565914 -0.420507874
v 0.064649396 0.281159762 -0.398015093
v 0.469519453 0.438609228 -0.285551189
v 0.626968920 0.371130885 -0.128101722
v 0.019663835 -0.011246390 -0.173087284
v 0.469519453 0.168695857 -0.240565627
v 0.402041110 0.011246390 -0.150594503
v 0.244591644 -0.011246390 -0.240565627
v 0.019663835 0.281159762 -0.398015093
v 0.064649396 0.393623666 -0.420507874
v 0.267084425 0.438609228 -0.375522312
v 0.581983358 0.236174200 -0.128101722
v 0.626968920 0.528580352 -0.150594503
v 0.017137987 0.004385733 -0.250555569
f 332 331 321
f 332 326 331
f 334 327 324
f 334 321 327
f 335 327 321
f 335 324 327
f 335 328 324
f 335 325 328
f 335 331 320
f 335 321 331
f 336 324 328
f 337 323 328
f 338 330 325
f 338 322 330
f 338 333 322
f 339 323 337
f 341 331 326
f 341 320 331
f 342 326 332
f 342 322 333
f 342 341 326
f 342 333 341
f 343 341 333
f 343 320 341
f 343 335 320
f 343 325 335
f 343 338 325
f 343 333 338
f 345 332 321
f 345 321 334
f 345 334 344
f 346 336 328
f 346 328 323
f 347 337 328
f 347 328 325
f 347 339 337
f 347 325 330
f 347 330 339
f 348 339 330
f 348 323 339
f 349 340 329
f 350 330 322
f 352 344 334
f 352 334 324
f 352 324 336
f 353 329 340
f 353 340 350
f 353 350 351
f 354 345 344
f 354 344 329
f 354 353 345
f 354 329 353
f 355 349 329
f 355 336 349
f 355 329 344
f 355 344 352
f 356 349 336
f 356 336 346
f 356 346 323
f 357 340 349
f 357 349 356
f 357 356 323
f 357 323 348
f 358 348 330
f 358 330 350
f 358 350 340
f 358 357 348
f 358 340 357
f 359 351 332
f 359 332 345
f 359 353 351
f 359 345 353
f 360 342 332
f 360 332 351
f 360 322 342
f 360 351 350
f 360 350 322
f 361 355 352
f 361 352 336
f 361 336 355
o app/meshes/bunny014
usemtl Material014
v 0.248414809 0.010547177 0.148512622
v 0.444390881 0.025054304 0.034803363
v 0.019795455 0.752885127 -0.238317524
v -0.047814508 0.596058695 -0.420507874
v -0.025321727 0.236174200 -0.375522312
v 0.455841478 0.132826467 -0.133142294
v 0.447026672 0.056231952 0.029347744
v 0.293580017 0.010096060 -0.129395938
v -0.227402653 0.305655707 -0.122973412
v 0.019663835 0.618551476 -0.420507874
v 0.267084425 -0.011246390 0.141811649
v 0.402041110 0.011246390 -0.128101722
v 0.019369436 0.054435212 0.141943506
v -0.252767919 0.664278820 -0.234262539
v -0.092800070 0.776000942 -0.263058408
v 0.019663835 0.686029818 -0.375522312
v 0.019663835 0.281159762 -0.398015093
v 0.447026672 0.078724733 -0.128101722
v 0.132127739 0.078724733 0.141811649
v 0.019546393 0.060493560 -0.127992660
v -0.137785632 0.461102009 -0.398015093
v -0.227756756 0.393623666 -0.128101722
v -0.137785632 0.573565914 -0.398015093
v -0.092576472 0.773962241 -0.234479326
v -0.025321727 0.776000942 -0.263058408
v -0.070307289 0.663537038 -0.375522312
v -0.092800070 0.438609228 -0.420507874
v -0.167830681 0.236779508 -0.120641831
v -0.137785632 0.236174200 -0.285551189
v -0.249698424 0.444490577 -0.179041216
v -0.250249537 0.641044257 -0.263058408
v -0.092800070 0.258666981 -0.353029531
f 368 364 362
f 368 367 364
f 368 363 367
f 372 368 362
f 372 363 368
f 373 372 369
f 373 363 372
f 373 369 366
f 374 372 362
f 377 364 367
f 377 367 371
f 378 371 367
f 378 373 366
f 379 367 363
f 379 363 373
f 379 378 367
f 379 373 378
f 380 374 362
f 380 362 364
f 381 369 372
f 381 372 374
f 381 366 369
f 383 370 374
f 383 374 375
f 385 376 375
f 385 375 374
f 385 374 380
f 385 380 364
f 386 377 376
f 386 364 377
f 386 385 364
f 386 376 385
f 387 377 371
f 387 371 365
f 387 376 377
f 387 365 384
f 388 365 371
f 388 371 378
f 388 378 366
f 388 384 365
f 388 382 384
f 389 381 374
f 389 374 370
f 390 389 370
f 390 366 381
f 390 381 389
f 391 383 375
f 391 370 383
f 391 390 370
f 391 382 390
f 392 384 382
f 392 387 384
f 392 375 376
f 392 376 387
f 392 391 375
f 392 382 391
f 393 388 366
f 393 382 388
f 393 390 382
f 393 366 390
o app/meshes/bunny015
usemtl Material015
v -0.160278413 0.708522599 0.524188925
v -0.160043501 0.438511196 0.457545317
v -0.176234949 0.990860202 -0.020908108
v -0.452684565 0.888464847 -0.173087284
v -0.785602686 0.874418940 0.368819348
v -0.362424750 0.864407414 -0.170195194
v -0.160278413 0.865972066 0.434217801
v -0.587641251 0.551073133 0.501696144
v -0.745090717 1.090899875 -0.038130598
v -0.710857651 0.445185982 0.140427172
v -0.452684565 1.090899875 -0.083116160
v -0.475177346 0.843479285 0.456710582
v -0.227756756 0.438609228 0.501696144
v -0.520162908 0.865972066 -0.150594503
v -0.745090717 0.506087571 0.344246677
v -0.812569060 0.596058695 0.141811649
v -0.362713441 0.955943190 -0.150594503
v -0.655119593 1.090899875 -0.083116160
v -0.351624156 1.121676532 0.236103231
v -0.520162908 0.663537038 0.524188925
v -0.700105155 0.438609228 0.344246677
v -0.632626812 0.573565914 0.479203363
v -0.804339317 0.874279441 0.143136744
v -0.767583498 0.483594790 0.141811649
v -0.745090717 0.910957628 -0.038130598
v -0.812569060 0.596058695 0.209289992
v -0.767583498 0.978435971 -0.038130598
v -0.182771194 1.045914313 0.186797211
v -0.362713441 1.113392656 -0.015637817
v -0.565148470 0.776000942 0.479203363
v -0.452684565 0.506087571 0.524188925
v -0.610134032 0.461102009 0.456710582
v -0.767583498 0.483594790 0.231782773
v -0.317727879 1.113392656 0.231782773
v -0.182771194 1.045914313 0.051840525
v -0.497670127 0.461102009 0.501696144
v -0.317727879 1.113392656 0.051840525
v -0.385206222 0.438609228 0.501696144
v -0.565148470 0.438609228 0.456710582
f 399 396 395
f 400 394 395
f 400 395 396
f 403 399 395
f 405 394 400
f 406 395 394
f 407 397 399
f 407 399 403
f 410 399 397
f 410 404 396
f 410 396 399
f 411 397 407
f 411 410 397
f 411 404 410
f 412 405 400
f 412 402 398
f 412 398 405
f 414 403 395
f 415 398 408
f 415 413 398
f 415 401 413
f 416 398 402
f 417 407 403
f 418 417 409
f 418 407 417
f 419 408 398
f 419 416 409
f 419 398 416
f 419 409 417
f 420 411 407
f 420 402 411
f 420 407 418
f 420 418 409
f 420 416 402
f 420 409 416
f 422 411 402
f 422 402 412
f 422 404 411
f 422 396 404
f 423 413 394
f 423 394 405
f 423 405 398
f 423 398 413
f 424 406 394
f 424 394 413
f 424 413 401
f 425 401 415
f 425 415 408
f 425 408 414
f 426 417 403
f 426 403 414
f 426 414 408
f 426 419 417
f 426 408 419
f 427 412 400
f 427 400 421
f 428 421 400
f 428 400 396
f 428 396 422
f 428 427 421
f 429 424 401
f 429 401 425
f 430 422 412
f 430 412 427
f 430 428 422
f 430 427 428
f 431 406 424
f 431 424 429
f 431 395 406
f 432 431 429
f 432 429 425
f 432 425 414
f 432 414 395
f 432 395 431
o app/meshes/bunny016
usemtl Material016
v 0.244591644 0.596058695 0.659145611
v 0.761587340 0.436594148 0.164490135
v 0.581983358 0.731015380 0.434217801
v 0.588903239 0.848424745 0.142116865
v 0.357041597 0.011789998 0.029351267
v 0.604476139 0.843479285 0.321753897
v 0.649461701 0.168695857 0.389232239
v -0.161112452 0.871770626 0.396760312
v 0.761332113 0.434296470 0.142488913
v 0.649461701 0.708522599 0.344246677
v 0.424533891 0.776000942 0.524188925
v 0.469519453 0.528580352 0.569174487
v 0.019663835 0.461102009 0.659145611
v -0.047814508 0.865972066 0.479203363
v 0.444390881 0.025054304 0.034803363
v 0.649461701 0.056231952 0.254275554
v 0.671954482 0.753508161 0.141811649
v 0.669322768 0.235293027 0.367744500
v 0.492012234 0.843479285 0.434217801
v 0.222098863 0.438609228 0.659145611
v 0.447026672 0.708522599 0.546681706
v -0.163292312 0.667524676 0.500859659
v 0.199606082 0.686029818 0.636652830
v 0.626968920 0.843479285 0.141811649
v 0.649461701 0.101217514 0.344246677
v 0.642641680 0.070345669 0.141389890
v 0.581983358 0.011246390 0.141811649
v 0.581983358 0.596058695 0.479203363
v 0.222098863 0.843479285 0.501696144
v 0.424533891 0.438609228 0.591667268
v 0.356656423 0.014956126 0.299187420
v -0.160278413 0.843479285 0.456710582
v 0.019663835 0.618551476 0.659145611
v 0.469519453 0.078724733 0.456710582
v 0.042156615 0.686029818 0.636652830
v -0.157348341 0.659660310 0.503134968
v 0.447026672 0.011246390 0.321753897
v -0.160278413 0.865972066 0.434217801
v -0.160278413 0.708522599 0.524188925
v 0.434750304 0.065586891 0.426599051
v 0.536997796 0.011246390 0.254275554
f 440 436 437
f 442 438 435
f 446 438 436
f 446 436 440
f 448 441 434
f 449 434 441
f 449 442 434
f 449 438 442
f 449 441 447
f 450 434 442
f 451 443 435
f 451 435 438
f 451 438 446
f 452 433 445
f 453 433 444
f 453 435 443
f 454 440 437
f 455 453 443
f 455 433 453
f 456 447 437
f 456 437 436
f 456 449 447
f 456 436 438
f 456 438 449
f 457 448 434
f 457 450 439
f 457 434 450
f 458 447 441
f 458 441 448
f 459 437 447
f 459 458 448
f 459 447 458
f 460 450 442
f 460 442 435
f 460 444 439
f 460 439 450
f 460 453 444
f 460 435 453
f 461 451 446
f 461 443 451
f 461 455 443
f 462 444 433
f 462 433 452
f 462 439 444
f 464 440 454
f 465 445 433
f 465 433 455
f 466 457 439
f 466 452 445
f 466 448 457
f 466 462 452
f 466 439 462
f 467 461 446
f 467 455 461
f 467 465 455
f 467 446 464
f 468 454 437
f 468 437 463
f 468 463 445
f 468 445 454
f 469 463 437
f 469 437 459
f 470 464 446
f 470 446 440
f 470 440 464
f 471 464 454
f 471 454 445
f 471 445 465
f 471 467 464
f 471 465 467
f 472 466 445
f 472 445 463
f 472 469 466
f 472 463 469
f 473 469 459
f 473 459 448
f 473 448 466
f 473 466 469
o app/meshes/bunny017
usemtl Material017
v 0.019663835 0.910957628 0.456710582
v 0.447026672 0.033739171 0.411725020
v 0.019663835 0.955943190 -0.150594503
v -0.430191784 0.731015380 -0.240565627
v -0.700105155 0.416116447 0.299261116
v 0.267084425 -0.011246390 0.141811649
v -0.804339317 0.874279441 0.143136744
v 0.027136015 1.027592028 0.268533568
v -0.497670127 0.438609228 0.479203363
v 0.440123124 0.028591890 0.295509173
v 0.019538187 0.732716943 -0.244211596
v -0.385206222 0.236174200 -0.105608941
v 0.019377298 0.064064637 0.411102330
v -0.362713441 1.045914313 -0.060623379
v 0.450163985 0.076748507 0.413527296
v -0.272742318 1.023421532 0.276768335
v -0.587641251 0.416116447 0.434217801
v -0.272742318 0.933450409 0.389232239
v 0.424533891 0.011246390 0.411725020
v 0.019663835 0.820986504 -0.240565627
v -0.227756756 0.303652543 -0.150594503
v -0.632626812 0.528580352 -0.173087284
v 0.019369436 0.054435212 0.141943506
v -0.587641251 0.281159762 0.141811649
v -0.655119593 0.865972066 -0.083116160
v 0.019663835 1.045914313 0.006854963
v -0.227756756 0.258666981 0.479203363
v -0.002828946 0.955943190 0.434217801
v -0.363774139 1.044794703 -0.014242181
v -0.306488734 0.237631244 0.439258385
v 0.267831059 0.017189808 0.414301028
v -0.156583467 0.660882367 -0.249249540
v -0.362713441 0.955943190 -0.150594503
v -0.385206222 0.528580352 -0.240565627
v -0.767583498 0.551073133 -0.015637817
v -0.790076279 0.865972066 0.051840525
v -0.677612374 0.731015380 -0.128101722
v -0.430191784 0.865972066 -0.195580065
v -0.542655689 0.461102009 -0.195580065
v -0.812569060 0.596058695 0.141811649
v -0.767583498 0.483594790 0.141811649
v -0.677612374 0.438609228 -0.083116160
v -0.745090717 0.708522599 -0.060623379
v -0.632626812 0.326145324 0.051840525
f 484 483 479
f 488 481 474
f 488 475 483
f 488 483 476
f 490 482 480
f 490 480 478
f 491 482 474
f 491 480 482
f 491 489 480
f 492 483 475
f 492 479 483
f 493 476 483
f 493 483 484
f 494 484 479
f 494 479 485
f 496 485 479
f 496 479 486
f 497 496 486
f 497 485 496
f 499 476 487
f 499 488 476
f 499 481 488
f 500 475 488
f 500 492 475
f 500 488 474
f 500 474 482
f 501 474 481
f 501 481 489
f 501 491 474
f 501 489 491
f 502 487 480
f 502 480 489
f 502 499 487
f 502 489 481
f 502 481 499
f 503 490 478
f 503 486 500
f 503 500 482
f 503 482 490
f 503 497 486
f 503 478 497
f 504 486 479
f 504 479 492
f 504 500 486
f 504 492 500
f 505 493 484
f 505 477 493
f 505 484 494
f 506 487 476
f 506 476 493
f 506 498 487
f 507 494 485
f 507 505 494
f 507 477 505
f 509 480 487
f 509 487 498
f 510 477 495
f 510 509 498
f 511 506 493
f 511 493 477
f 511 498 506
f 511 510 498
f 511 477 510
f 512 507 485
f 512 495 477
f 512 477 507
f 513 478 480
f 513 509 508
f 513 480 509
f 514 513 508
f 514 478 513
f 515 508 495
f 515 514 508
f 515 512 485
f 515 495 512
f 516 510 495
f 516 495 508
f 516 508 509
f 516 509 510
f 517 497 478
f 517 478 514
f 517 514 515
f 517 515 485
f 517 485 497
o app/meshes/bunny018
usemtl Material018
v 0.222098863 0.438609228 0.659145611
v 0.447026672 0.056231952 0.479203363
v 0.581983358 0.888464847 0.299261116
v 0.019663835 0.865972066 -0.218072846
v -0.137959136 0.235578809 0.417414633
v 0.559490577 0.843479285 -0.083116160
v 0.019663835 1.000928752 0.389232239
v 0.447026672 0.438609228 0.569174487
v 0.152462374 0.030239037 0.535049527
v 0.587919399 0.832390674 0.034474850
v 0.424533891 0.011246390 0.411725020
v 0.289577206 1.000928752 0.411725020
v -0.115292851 0.528580352 0.614160049
v 0.289577206 0.303652543 0.636652830
v 0.514505015 0.978435971 0.074333306
v 0.588199846 0.833466449 0.250415162
v 0.289577206 0.865972066 -0.218072846
v 0.334562768 0.011246390 0.524188925
v 0.199606082 0.011246390 0.411725020
v 0.514505015 0.865972066 0.411725020
v -0.025321727 0.663537038 0.636652830
v 0.042156615 0.303652543 0.636652830
v -0.157348341 0.659660310 0.503134968
v 0.536997796 0.933450409 -0.015637817
v 0.447026672 1.023421532 0.276768335
v 0.424533891 0.843479285 -0.173087284
v 0.132127739 1.068407094 -0.015637817
v 0.267084425 0.191188638 0.614160049
v 0.158336877 0.016860457 0.446796893
v 0.087142177 0.978435971 0.434217801
v -0.047814508 0.528580352 0.659145611
v -0.002828946 0.236174200 0.591667268
v 0.019663835 1.045914313 -0.015637817
v 0.402041110 1.000928752 0.366739458
v 0.424533891 0.910957628 -0.150594503
v 0.289577206 0.978435971 -0.150594503
v 0.289577206 1.090899875 0.096826087
v 0.244591644 1.068407094 0.321753897
v 0.019663835 1.068407094 0.209289992
v 0.042156615 1.000928752 -0.105608941
v 0.447026672 0.978435971 -0.060623379
v 0.357055549 1.068407094 0.254275554
v 0.334562768 1.045914313 -0.038130598
v 0.087142177 1.068407094 0.299261116
f 525 519 520
f 528 527 519
f 528 523 527
f 531 525 518
f 531 519 525
f 533 527 520
f 533 520 519
f 533 519 527
f 534 528 521
f 535 528 519
f 535 519 531
f 536 522 521
f 536 521 528
f 536 528 535
f 537 525 520
f 537 518 525
f 538 537 529
f 538 518 537
f 539 531 518
f 540 521 522
f 540 522 530
f 540 538 524
f 540 530 538
f 541 527 523
f 541 532 520
f 541 520 527
f 542 520 532
f 543 523 528
f 543 528 534
f 545 535 531
f 545 526 535
f 545 539 526
f 545 531 539
f 546 526 522
f 546 522 536
f 546 536 535
f 546 535 526
f 547 538 529
f 547 524 538
f 548 538 530
f 548 539 518
f 548 518 538
f 549 530 522
f 549 522 526
f 549 526 539
f 549 548 530
f 549 539 548
f 550 521 540
f 551 537 520
f 551 520 542
f 551 529 537
f 552 541 523
f 552 523 543
f 552 543 534
f 553 534 521
f 553 552 534
f 555 547 529
f 555 529 551
f 556 550 540
f 556 540 524
f 556 544 550
f 556 554 544
f 557 550 544
f 557 521 550
f 557 553 521
f 557 544 553
f 558 541 552
f 558 552 553
f 558 532 541
f 559 542 532
f 559 532 554
f 559 554 555
f 559 555 551
f 559 551 542
f 560 553 544
f 560 544 554
f 560 558 553
f 560 554 532
f 560 532 558
f 561 524 547
f 561 547 555
f 561 556 524
f 561 555 554
f 561 554 556
